<?xml version="1.0" encoding="UTF-8" standalone="no"?>
<svg
   xmlns:dc="http://purl.org/dc/elements/1.1/"
   xmlns:cc="http://creativecommons.org/ns#"
   xmlns:rdf="http://www.w3.org/1999/02/22-rdf-syntax-ns#"
   xmlns:svg="http://www.w3.org/2000/svg"
   xmlns="http://www.w3.org/2000/svg"
   id="svg46"
   version="1.1"
   viewBox="0 0 12.992269 12.99227"
   height="54.560715"
   width="54.560715">
  <metadata
     id="metadata52">
    <rdf:RDF>
      <cc:Work
         rdf:about="">
        <dc:format>image/svg+xml</dc:format>
        <dc:type
           rdf:resource="http://purl.org/dc/dcmitype/StillImage" />
        <dc:title></dc:title>
      </cc:Work>
    </rdf:RDF>
  </metadata>
  <defs
     id="defs50" />
  <g
     style="stroke-width:1.35692108"
     transform="matrix(0.73696254,0,0,0.73696254,214.77629,-105.2467)"
     id="g62">
    <path
       style="fill:#a5ac51;fill-opacity:1;stroke-width:0.2774123"
       d="m -282.61949,144.87023 -3.53048,5.5871 h 1.07341 4.91367 1.07297 z"
       id="path54" />
    <path
       style="fill:#a09574;fill-opacity:1;stroke-width:0.2774123"
       d="m -283.58995,156.17405 v 2.20813 h 1.77728 v -2.20813 z"
       id="path56" />
    <path
       style="fill:#919848;fill-opacity:1;stroke-width:0.2774123"
       d="m -285.22584,150.39419 -1.84361,2.9361 h 1.72548 5.44804 1.72593 l -1.84361,-2.9361 z"
       id="path58" />
    <path
       style="fill:#797e3d;fill-opacity:1;stroke-width:0.2774123"
       d="m -285.5114,153.28819 -2.08547,2.97005 h 0.68323 3.297 1.99383 3.11655 0.86368 l -2.08592,-2.97005 z"
       id="path60" />
  </g>
  <path
     id="path64"
     d="M 12.635087,6.4961329 A 6.138947,6.138947 0 0 1 6.4961394,12.63508 6.138947,6.138947 0 0 1 0.35719235,6.4961329 6.138947,6.138947 0 0 1 6.4961394,0.35718591 6.138947,6.138947 0 0 1 12.635087,6.4961329 Z"
     style="opacity:1;fill:none;fill-opacity:1;stroke:#919848;stroke-width:0.71437496;stroke-linecap:round;stroke-linejoin:miter;stroke-miterlimit:4;stroke-dasharray:none;stroke-dashoffset:0;stroke-opacity:1" />
</svg>
