<?xml version="1.0" standalone="no"?>
<!DOCTYPE svg PUBLIC "-//W3C//DTD SVG 20010904//EN"
 "http://www.w3.org/TR/2001/REC-SVG-20010904/DTD/svg10.dtd">
<svg version="1.0" xmlns="http://www.w3.org/2000/svg"
 width="512.000000pt" height="512.000000pt" viewBox="0 0 512.000000 512.000000"
 preserveAspectRatio="xMidYMid meet">
<metadata>
Created by potrace 1.11, written by Peter Selinger 2001-2013
</metadata>
<g transform="translate(0.000000,512.000000) scale(0.100000,-0.100000)"
fill="#000000" stroke="none">
<path d="M2379 5116 c-2 -2 -39 -6 -81 -10 -43 -4 -83 -8 -90 -11 -7 -2 -31
-6 -53 -9 -85 -12 -114 -18 -244 -52 -706 -183 -1311 -673 -1636 -1323 -106
-211 -195 -473 -230 -676 -56 -325 -56 -637 0 -948 46 -254 170 -591 291 -794
103 -172 192 -298 296 -416 297 -339 692 -603 1113 -742 99 -33 204 -63 245
-70 19 -3 55 -11 80 -16 173 -39 556 -59 725 -38 39 5 90 11 115 14 626 79
1247 431 1648 938 37 46 80 103 97 128 16 24 32 46 35 49 11 10 119 197 158
275 105 206 215 543 236 720 9 73 19 144 23 160 2 11 6 110 8 220 8 445 -80
824 -283 1218 -288 562 -781 1002 -1369 1221 -144 54 -311 101 -428 121 -16 3
-41 7 -55 9 -112 20 -214 29 -391 31 -114 2 -208 2 -210 1z m421 -290 c19 -3
58 -8 85 -11 205 -25 537 -131 732 -236 531 -286 918 -743 1106 -1309 37 -110
82 -300 92 -385 3 -27 8 -61 11 -75 9 -42 12 -380 3 -458 -61 -559 -284 -1029
-671 -1413 -361 -359 -863 -596 -1363 -645 -103 -11 -370 -11 -460 -1 -119 14
-138 16 -220 33 -301 61 -593 184 -845 357 -144 98 -382 314 -457 415 -15 20
-36 46 -47 57 -50 54 -195 291 -256 417 -86 180 -156 387 -184 543 -3 17 -8
41 -11 55 -28 139 -38 442 -22 620 26 273 115 564 252 827 255 490 673 863
1193 1067 84 33 233 80 286 90 11 2 42 9 69 15 26 6 64 14 85 17 20 3 44 7 52
9 8 3 49 7 90 11 41 3 76 7 78 9 5 4 367 -4 402 -9z"/>
<path d="M2049 3714 c-277 -439 -505 -801 -507 -805 -2 -5 53 -10 122 -11
l125 -3 -76 -120 c-41 -66 -83 -132 -92 -147 -49 -82 -317 -507 -333 -528 -17
-21 -17 -25 -4 -30 8 -3 107 -5 220 -5 136 0 202 -3 199 -10 -3 -5 -28 -41
-55 -80 -27 -38 -113 -160 -190 -270 -77 -110 -184 -264 -239 -341 -54 -78
-99 -143 -99 -146 0 -2 260 -3 578 -3 l577 0 1 -303 c1 -167 5 -306 8 -309 8
-9 495 -7 503 1 4 4 8 140 9 304 0 163 2 299 3 302 0 3 269 5 597 5 328 0 597
2 599 5 2 3 -65 102 -149 221 -83 119 -205 294 -271 389 -66 94 -130 185 -143
200 -12 16 -19 30 -15 32 5 3 100 4 213 3 113 -1 208 0 212 2 4 2 -19 45 -51
96 -65 104 -302 482 -397 632 l-63 100 124 3 c69 1 125 5 125 7 0 3 -21 37
-47 77 -25 40 -181 287 -346 548 -165 261 -314 498 -332 525 -64 100 -250 395
-265 422 -9 15 -21 28 -27 30 -6 2 -237 -355 -514 -793z"/>
</g>
</svg>
